HIERARCHY
ROOT Hips
{
	OFFSET 0.00000 0.00000 0.00000
	CHANNELS 6 Xposition Yposition Zposition Zrotation Yrotation Xrotation 
	JOINT LHipJoint
	{
		OFFSET 0 0 0
		CHANNELS 3 Zrotation Yrotation Xrotation
		JOINT LeftUpLeg
		{
			OFFSET 1.75344 -1.53157 0.77399
			CHANNELS 3 Zrotation Yrotation Xrotation
			JOINT LeftLeg
			{
				OFFSET 2.25415 -6.19323 0.00000
				CHANNELS 3 Zrotation Yrotation Xrotation
				JOINT LeftFoot
				{
					OFFSET 2.30342 -6.32861 0.00000
					CHANNELS 3 Zrotation Yrotation Xrotation
					JOINT LeftToeBase
					{
						OFFSET 0.10958 -0.30108 1.49206
						CHANNELS 3 Zrotation Yrotation Xrotation
						End Site
						{
							OFFSET 0.00000 -0.00000 0.77783
						}
					}
				}
			}
		}
	}
	JOINT RHipJoint
	{
		OFFSET 0 0 0
		CHANNELS 3 Zrotation Yrotation Xrotation
		JOINT RightUpLeg
		{
			OFFSET -1.81912 -1.53156 0.77399
			CHANNELS 3 Zrotation Yrotation Xrotation
			JOINT RightLeg
			{
				OFFSET -2.22882 -6.12365 0.00000
				CHANNELS 3 Zrotation Yrotation Xrotation
				JOINT RightFoot
				{
					OFFSET -2.21943 -6.09785 0.00000
					CHANNELS 3 Zrotation Yrotation Xrotation
					JOINT RightToeBase
					{
						OFFSET -0.18931 -0.52012 1.59379
						CHANNELS 3 Zrotation Yrotation Xrotation
						End Site
						{
							OFFSET -0.00000 -0.00000 0.84686
						}
					}
				}
			}
		}
	}
	JOINT LowerBack
	{
		OFFSET 0 0 0
		CHANNELS 3 Zrotation Yrotation Xrotation
		JOINT Spine
		{
			OFFSET -0.00200 1.66634 -0.14248
			CHANNELS 3 Zrotation Yrotation Xrotation
			JOINT Spine1
			{
				OFFSET -0.00875 1.64542 0.09514
				CHANNELS 3 Zrotation Yrotation Xrotation
				JOINT Neck
				{
					OFFSET 0 0 0
					CHANNELS 3 Zrotation Yrotation Xrotation
					JOINT Neck1
					{
						OFFSET 0.02257 1.59605 0.00839
						CHANNELS 3 Zrotation Yrotation Xrotation
						JOINT Head
						{
							OFFSET -0.10214 1.57530 -0.23335
							CHANNELS 3 Zrotation Yrotation Xrotation
							End Site
							{
								OFFSET -0.03588 1.60717 -0.08062
							}
						}
					}
				}
				JOINT LeftShoulder
				{
					OFFSET 0 0 0
					CHANNELS 3 Zrotation Yrotation Xrotation
					JOINT LeftArm
					{
						OFFSET 2.54983 1.10186 0.40078
						CHANNELS 3 Zrotation Yrotation Xrotation
						JOINT LeftForeArm
						{
							OFFSET 4.28840 -0.00000 0.00000
							CHANNELS 3 Zrotation Yrotation Xrotation
							JOINT LeftHand
							{
								OFFSET 3.06552 -0.00000 -0.00000
								CHANNELS 3 Zrotation Yrotation Xrotation
								JOINT LeftFingerBase
								{
									OFFSET 0 0 0
									CHANNELS 3 Zrotation Yrotation Xrotation
									JOINT LeftHandIndex1
									{
										OFFSET 0.75304 -0.00000 0.00000
										CHANNELS 3 Zrotation Yrotation Xrotation
										End Site
										{
											OFFSET 0.60712 -0.00000 0.00000
										}
									}
								}
								JOINT LThumb
								{
									OFFSET 0 0 0
									CHANNELS 3 Zrotation Yrotation Xrotation
									End Site
									{
										OFFSET 0.61639 -0.00000 0.61639
									}
								}
							}
						}
					}
				}
				JOINT RightShoulder
				{
					OFFSET 0 0 0
					CHANNELS 3 Zrotation Yrotation Xrotation
					JOINT RightArm
					{
						OFFSET -2.60909 1.35448 0.21802
						CHANNELS 3 Zrotation Yrotation Xrotation
						JOINT RightForeArm
						{
							OFFSET -4.52172 -0.00000 -0.00000
							CHANNELS 3 Zrotation Yrotation Xrotation
							JOINT RightHand
							{
								OFFSET -2.89140 -0.00000 0.00000
								CHANNELS 3 Zrotation Yrotation Xrotation
								JOINT RightFingerBase
								{
									OFFSET 0 0 0
									CHANNELS 3 Zrotation Yrotation Xrotation
									JOINT RightHandIndex1
									{
										OFFSET -0.68054 -0.00000 0.00000
										CHANNELS 3 Zrotation Yrotation Xrotation
										End Site
										{
											OFFSET -0.54867 -0.00000 0.00000
										}
									}
								}
								JOINT RThumb
								{
									OFFSET 0 0 0
									CHANNELS 3 Zrotation Yrotation Xrotation
									End Site
									{
										OFFSET -0.55705 -0.00000 0.55705
									}
								}
							}
						}
					}
				}
			}
		}
	}
}
MOTION
Frames: 13
Frame Time: .0083333
9.943 15.5389 19.6942 0 0 0 0 0 0 -21 0 0 0 0 0 0 0 0 0 0 0 0 0 0 21 0 0 0 0 0 0 0 0 0 0 0 0 0 0 0 0 0 0 0 0 0 0 -16 0 0 21 0 0 11 0 0 0 -8 0 0 0 0 0 0 0 0 0 0 0 0 0 0 0 0 0 0 0 0 8 0 0 0 0 0 0 0 0 0 0 0 0 0 0 0 0 0
9.9430 15.5389 19.6942 -178.5240 0.0779 179.9420 0.0000 0.0000 0.0000 -21.3429 -22.5736 0.4449 1.6169 8.0178 22.7681 -0.2643 18.0570 -23.1602 7.6097 -15.8245 -51.1442 0.0000 0.0000 0.0000 25.2374 14.2487 5.2894 -0.6153 -5.0202 13.9661 1.0457 -22.7835 -23.8861 -0.1038 2.0778 -5.7207 2.1137 1.2478 9.6199 -0.0205 2.0118 -4.1309 -1.5739 0.8560 -9.7564 -6.8193 -2.1210 -7.7949 6.7033 -3.8200 17.5755 2.9516 -2.0220 6.8815 -0.0000 0.0000 0.0000 -85.4463 11.8025 27.6442 19.4543 -29.9793 -5.2559 -0.0000 -0.0000 14.4854 3.7745 -34.0867 -2.1175 -7.1250 0.0000 -0.0000 -15.7863 -3.0426 17.2562 -0.0000 0.0000 0.0000 84.4185 -10.9336 38.6635 -19.9188 30.5444 -5.4900 0.0000 0.0000 20.9294 -13.4741 -52.6933 10.7900 7.1250 -0.0000 -0.0000 64.9811 -76.2035 -51.5452
9.9421 15.5377 19.6938 -178.5220 0.1165 179.9410 0.0000 0.0000 0.0000 -21.3115 -22.4348 0.3661 1.6214 8.0285 22.8008 -0.2568 17.9512 -23.0680 7.5893 -15.8087 -51.0695 0.0000 0.0000 0.0000 25.2309 14.2310 5.2326 -0.6233 -5.0521 14.0571 1.0268 -22.7114 -23.9295 -0.0948 1.9855 -5.4655 2.1131 1.2666 9.6302 -0.0051 2.0349 -4.0706 -1.5600 0.8682 -9.6956 -6.8195 -2.1508 -7.6976 6.6585 -3.8262 17.3305 2.9364 -2.0224 6.7858 -0.0000 -0.0000 0.0000 -85.2783 11.7877 27.3257 19.3980 -29.9102 -5.2278 -0.0000 -0.0000 14.1468 4.0581 -34.1302 -2.2795 -7.1250 0.0000 -0.0000 -15.6354 -3.1137 17.0968 -0.0000 -0.0000 0.0000 84.1328 -10.9156 38.8471 -20.0617 30.7166 -5.5628 0.0000 0.0000 20.4807 -14.7413 -51.6729 11.6626 7.1250 -0.0000 -0.0000 60.3631 -76.3440 -47.5489
9.9387 15.5339 19.6902 -178.5790 0.3092 179.8470 0.0000 0.0000 0.0000 -21.4351 -22.3180 0.5065 1.6157 8.0149 22.7594 -0.2780 18.0842 -23.0678 7.5852 -15.8055 -51.0544 0.0000 0.0000 0.0000 25.1567 14.2518 5.2344 -0.6388 -5.1133 14.2319 0.9775 -22.5186 -24.0356 -0.0857 1.8878 -5.1958 2.1013 1.3612 9.6876 -0.0379 2.1523 -3.9769 -1.6087 0.9242 -9.6207 -6.7213 -2.1853 -7.5008 6.5678 -3.8431 16.9872 2.8896 -2.0259 6.6397 -0.0000 -0.0000 0.0000 -84.9893 11.9254 27.2345 19.4599 -29.9861 -5.2587 -0.0000 -0.0000 13.7311 5.0301 -34.5679 -2.8590 -7.1250 0.0000 -0.0000 -15.1324 -3.6400 16.6385 -0.0000 -0.0000 0.0000 83.8946 -10.8488 38.9032 -20.2774 30.9751 -5.6734 0.0000 0.0000 19.8569 -14.4411 -51.1586 11.3419 7.1250 -0.0000 -0.0000 58.5785 -76.0222 -45.6468
9.9381 15.5323 19.6931 -178.7000 0.3077 179.8510 0.0000 0.0000 0.0000 -21.5593 -22.3269 0.4870 1.6155 8.0146 22.7585 -0.2525 17.9783 -23.1532 7.5328 -15.7647 -50.8619 0.0000 0.0000 0.0000 24.9934 14.2171 5.1233 -0.6505 -5.1592 14.3633 0.9434 -22.4078 -24.1544 -0.0783 1.8045 -4.9657 1.9987 1.4074 9.7525 -0.0815 2.1925 -3.9002 -1.6050 0.9480 -9.5747 -6.6895 -2.2309 -7.4098 6.5569 -3.8694 16.6532 2.8785 -2.0282 6.5188 -0.0000 -0.0000 0.0000 -84.7100 11.9966 27.0681 19.5185 -30.0578 -5.2880 -0.0000 -0.0000 13.4678 5.4657 -34.8964 -3.1333 -7.1250 0.0000 -0.0000 -14.9157 -4.0056 16.4731 -0.0000 -0.0000 0.0000 83.5738 -10.7078 39.0635 -20.7220 31.5024 -5.9040 0.0000 0.0000 18.1803 -12.7132 -52.0987 10.0938 7.1250 -0.0000 -0.0000 63.0661 -75.7111 -49.2960
9.9407 15.5339 19.7014 -178.7400 0.2097 179.9540 0.0000 0.0000 0.0000 -21.4921 -22.2792 0.2497 1.6172 8.0185 22.7702 -0.2210 17.6991 -23.0292 7.5081 -15.7452 -50.7707 0.0000 0.0000 0.0000 24.9144 14.1583 4.8832 -0.6616 -5.2022 14.4862 0.9390 -22.3788 -24.1402 -0.0754 1.7717 -4.8753 1.9080 1.4190 9.8216 -0.0752 2.1948 -3.8559 -1.5489 0.9542 -9.5700 -6.7301 -2.3344 -7.4729 6.5228 -3.9631 16.4594 2.8656 -2.0677 6.4758 -0.0000 -0.0000 0.0000 -84.5258 11.9473 26.7474 19.5122 -30.0502 -5.2849 -0.0000 -0.0000 13.3541 5.5300 -35.0900 -3.1856 -7.1250 0.0000 -0.0000 -14.8919 -4.1996 16.4923 -0.0000 -0.0000 0.0000 83.2258 -10.6710 39.3031 -20.8905 31.7003 -5.9923 0.0000 0.0000 18.1944 -12.5831 -52.4771 10.0393 7.1250 -0.0000 -0.0000 64.5555 -75.7898 -50.7184
9.9432 15.5355 19.7112 -178.6990 0.1200 180.0530 0.0000 0.0000 0.0000 -21.3260 -22.2230 -0.0294 1.6236 8.0337 22.8164 -0.2254 17.5564 -22.7640 7.5821 -15.8031 -51.0431 0.0000 0.0000 0.0000 24.9255 14.1082 4.6479 -0.6699 -5.2339 14.5769 0.9615 -22.4363 -24.0307 -0.0915 1.9504 -5.3686 1.9250 1.4205 9.9347 -0.0540 2.2017 -3.8319 -1.5404 0.9560 -9.6103 -6.7476 -2.4073 -7.4200 6.4606 -4.0165 16.1940 2.8441 -2.0906 6.3859 0.0000 -0.0000 0.0000 -84.3877 11.9774 26.3006 19.5359 -30.0791 -5.2968 -0.0000 -0.0000 13.2178 5.4928 -35.1616 -3.1697 -7.1250 0.0000 -0.0000 -14.9157 -4.2642 16.5363 0.0000 -0.0000 0.0000 82.9404 -10.7245 39.4434 -21.0022 31.8309 -6.0511 0.0000 0.0000 18.6346 -12.9380 -52.3466 10.3083 7.1250 -0.0000 -0.0000 63.8887 -75.8833 -50.2171
9.9457 15.5366 19.7212 -178.6540 0.0328 180.1690 0.0000 0.0000 0.0000 -21.1527 -22.1916 -0.3454 1.6352 8.0608 22.8988 -0.2068 17.3722 -22.6655 7.6141 -15.8280 -51.1605 0.0000 0.0000 0.0000 24.9466 14.1437 4.4489 -0.6742 -5.2503 14.6239 0.9955 -22.5769 -23.9721 -0.1246 2.2757 -6.2681 1.9628 1.4277 10.0249 -0.0444 2.2181 -3.8129 -1.5569 0.9609 -9.6411 -6.8660 -2.4313 -7.3130 6.6214 -4.0272 15.8621 2.9152 -2.0838 6.2684 -0.0000 -0.0000 0.0000 -84.1308 12.0587 26.0562 19.6520 -30.2207 -5.3551 -0.0000 -0.0000 12.5786 4.2265 -34.8722 -2.4195 -7.1250 0.0000 -0.0000 -15.5771 -3.8442 17.2174 -0.0000 -0.0000 0.0000 82.6511 -10.6611 39.5408 -21.2889 32.1641 -6.2030 0.0000 0.0000 17.6793 -12.3171 -52.5579 9.8351 7.1250 -0.0000 -0.0000 64.9880 -75.7139 -51.0277
9.9467 15.5376 19.7290 -178.6610 -0.0334 180.3110 0.0000 0.0000 0.0000 -21.0604 -22.2002 -0.6469 1.6509 8.0976 23.0110 -0.1852 17.2139 -22.6398 7.6114 -15.8258 -51.1505 0.0000 0.0000 0.0000 24.8875 14.1540 4.2469 -0.6745 -5.2517 14.6277 0.9919 -22.5908 -24.0360 -0.1432 2.4389 -6.7202 1.9724 1.4950 10.0653 -0.0670 2.2489 -3.7812 -1.5884 0.9495 -9.6266 -7.0349 -2.5001 -7.3916 6.8708 -4.1113 15.7000 3.0158 -2.1081 6.2451 0.0000 -0.0000 0.0000 -83.7646 12.0987 26.0342 19.7226 -30.3067 -5.3907 -0.0000 -0.0000 11.9756 3.2832 -34.8535 -1.8777 -7.1250 0.0000 -0.0000 -16.0790 -3.7277 17.7866 0.0000 -0.0000 0.0000 82.3467 -10.4311 39.6788 -21.3493 32.2339 -6.2352 0.0000 0.0000 17.3976 -12.2160 -52.5031 9.7465 7.1250 -0.0000 -0.0000 64.8295 -75.6573 -50.8237
9.9460 15.5381 19.7344 -178.6750 -0.1238 180.4000 0.0000 0.0000 0.0000 -21.0257 -22.2567 -0.8406 1.6686 8.1387 23.1363 -0.1752 17.1376 -22.6236 7.6581 -15.8619 -51.3215 0.0000 0.0000 0.0000 24.8176 14.0698 4.0990 -0.6734 -5.2473 14.6154 0.9456 -22.4829 -24.2806 -0.1318 2.3400 -6.4464 1.9975 1.4933 10.1351 -0.0939 2.2507 -3.7346 -1.6330 0.9492 -9.6144 -7.1112 -2.5648 -7.4283 6.9992 -4.1782 15.4842 3.0636 -2.1273 6.1927 -0.0000 -0.0000 0.0000 -83.4807 12.1587 25.7217 19.6851 -30.2610 -5.3717 -0.0000 -0.0000 12.0150 3.3294 -34.8658 -1.9047 -7.1250 0.0000 -0.0000 -16.0550 -3.7441 17.7622 -0.0000 -0.0000 0.0000 82.0835 -10.2471 39.7869 -21.4306 32.3275 -6.2786 0.0000 0.0000 17.3402 -11.0147 -53.1967 8.8585 7.1250 -0.0000 -0.0000 67.9680 -75.4104 -53.4127
9.9469 15.5366 19.7394 -178.5890 -0.2015 180.4430 0.0000 0.0000 0.0000 -20.8743 -22.2328 -1.0183 1.6834 8.1730 23.2408 -0.1608 17.0700 -22.6651 7.7298 -15.9169 -51.5837 0.0000 0.0000 0.0000 24.8804 13.9715 3.9911 -0.6742 -5.2504 14.6241 0.9300 -22.4664 -24.4009 -0.1240 2.2697 -6.2515 2.0596 1.4599 10.2153 -0.0592 2.2206 -3.6783 -1.6272 0.9334 -9.6002 -7.1310 -2.5602 -7.1989 7.0637 -4.1421 15.0134 3.0916 -2.1008 6.0040 0.0000 0.0000 0.0000 -83.2634 12.3338 25.1747 19.7762 -30.3717 -5.4177 -0.0000 -0.0000 11.9615 2.6869 -34.5960 -1.5263 -7.1250 0.0000 -0.0000 -16.3872 -3.4217 18.0734 0.0000 0.0000 0.0000 81.8174 -10.1683 39.8689 -21.5782 32.4971 -6.3578 0.0000 0.0000 17.2842 -8.0860 -54.4165 6.5908 7.1250 -0.0000 -0.0000 73.5469 -74.6174 -57.7189
9.9491 15.5358 19.7467 -178.5120 -0.2631 180.5480 0.0000 0.0000 0.0000 -20.6832 -22.1749 -1.2977 1.6943 8.1980 23.3170 -0.1471 16.9623 -22.6394 7.7512 -15.9332 -51.6616 0.0000 0.0000 0.0000 24.9205 13.9225 3.7638 -0.6811 -5.2766 14.6992 0.9579 -22.5621 -24.3158 -0.1296 2.3206 -6.3926 2.1104 1.4594 10.2804 -0.0562 2.2299 -3.6304 -1.6556 0.9361 -9.5839 -7.0555 -2.6006 -7.0971 7.0494 -4.1693 14.6598 3.0725 -2.1040 5.8762 -0.0000 -0.0000 0.0000 -82.9834 12.5164 24.7235 19.9575 -30.5911 -5.5097 -0.0000 -0.0000 11.8911 1.7242 -34.1317 -0.9677 -7.1250 0.0000 -0.0000 -16.8869 -2.8873 18.5231 -0.0000 -0.0000 0.0000 81.5589 -10.0856 39.8982 -21.6992 32.6355 -6.4229 0.0000 0.0000 17.4969 -9.2313 -54.0975 7.4998 7.1250 -0.0000 -0.0000 71.9920 -74.9710 -56.6556
9.9520 15.5381 19.7565 -178.5540 -0.4162 180.7200 0.0000 0.0000 0.0000 -20.5906 -22.1963 -1.6592 1.7068 8.2265 23.4042 -0.1356 16.7921 -22.4999 7.7642 -15.9431 -51.7090 0.0000 0.0000 0.0000 24.8274 13.9310 3.4568 -0.6908 -5.3136 14.8051 0.9800 -22.6816 -24.3359 -0.1286 2.3115 -6.3674 2.0841 1.4584 10.4181 -0.1110 2.2244 -3.6439 -1.7035 0.9316 -9.6787 -6.9633 -2.6581 -7.1751 7.0595 -4.2266 14.4538 3.0548 -2.1172 5.8282 -0.0000 -0.0000 0.0000 -82.6778 12.5883 24.2772 19.9727 -30.6095 -5.5175 -0.0000 -0.0000 12.1603 0.8423 -33.0963 -0.4600 -7.1250 0.0000 -0.0000 -17.3392 -1.8224 18.7512 -0.0000 -0.0000 0.0000 81.3057 -10.0178 39.8865 -21.7950 32.7446 -6.4746 0.0000 0.0000 17.7477 -4.7256 -55.1416 3.8805 7.1250 -0.0000 -0.0000 77.1890 -73.5382 -59.9513
